{"title":"Gogglebox Au - S04E07","uid":15962750,"size":401450050,"categoryP":"video","categoryS":"tv_shows","magnet":"?xt=urn:btih:2e40596704c7e9f3aa7a6d631cf2f9573945bca8&amp;dn=Gogglebox+Au+-+S04E07&amp;tr=udp%3A%2F%2Ftracker.leechers-paradise.org%3A6969&amp;tr=udp%3A%2F%2Fzer0day.ch%3A1337&amp;tr=udp%3A%2F%2Fopen.demonii.com%3A1337&amp;tr=udp%3A%2F%2Ftracker.coppersurfer.tk%3A6969&amp;tr=udp%3A%2F%2Fexodus.desync.com%3A6969","seeders":9,"leechers":4,"uploader":"Bullrout","files":1,"time":1475688429,"description":"Gogglebox Au - S04E07\r\n\r\nThe Goggleboxers reveal what they thought of the week's best TV, including I Own Australia's Best Home, The Trump vs Clinton Debate on 7:30pm Report, The Wrong Girl and Conviction: Jill Meagher.\r\n\r\nComplete name                            : Gogglebox Au - S04E07.mp4\r\nFormat                                   : MPEG-4\r\nFormat profile                           : Base Media / Version 2\r\nCodec ID                                 : mp42 (mp42/isom/avc1)\r\nFile size                                : 383 MiB\r\nDuration                                 : 48 min 55 s\r\nOverall bit rate mode                    : Variable\r\nOverall bit rate                         : 1 094 kb/s\r\n\r\nVideo\r\nID                                       : 2\r\nFormat                                   : AVC\r\nFormat/Info                              : Advanced Video Codec\r\nFormat profile                           :   \r\nFormat settings, CABAC                   : Yes\r\nFormat settings, ReFrames                : 3 frames\r\nCodec ID                                 : avc1\r\nCodec ID/Info                            : Advanced Video Coding\r\nDuration                                 : 48 min 55 s\r\nBit rate mode                            : Variable\r\nBit rate                                 : 962 kb/s\r\nMaximum bit rate                         : 1 000 kb/s\r\nWidth                                    : 720 pixels\r\nHeight                                   : 404 pixels\r\nDisplay aspect ratio                     : 16:9\r\nOriginal display aspect ratio            : 16:9\r\nFrame rate mode                          : Constant\r\nFrame rate                               : 25.000 FPS\r\nStandard                                 : PAL\r\nColor space                              : YUV\r\nChroma subsampling                       : 4:2:0\r\nBit depth                                : 8 bits\r\nScan type                                : Progressive\r\nBits/(Pixel*Frame)                       : 0.132\r\nStream size                              : 337 MiB (88%)\r\nWriting library                          : x264 core 112\r\nColor range                              : Limited\r\nColor primaries                          : BT.601 PAL\r\nTransfer characteristics                 : BT.470 System B, BT.470 System G\r\nMatrix coefficients                      : BT.601\r\n\r\nAudio\r\nID                                       : 1\r\nFormat                                   : AAC\r\nFormat/Info                              : Advanced Audio Codec\r\nFormat profile                           : LC\r\nCodec ID                                 : 40\r\nDuration                                 : 48 min 55 s\r\nBit rate mode                            : Variable\r\nBit rate                                 : 128 kb/s\r\nMaximum bit rate                         : 576 kb/s\r\nChannel(s)                               : 2 channels\r\nChannel positions                        : Front: L R\r\nSampling rate                            : 48.0 kHz\r\nFrame rate                               : 46.875 FPS (1024 spf)\r\nCompression mode                         : Lossy\r\nStream size                              : 44.8 MiB (12%)","torrent":{"xt":"urn:btih:2e40596704c7e9f3aa7a6d631cf2f9573945bca8","amp;dn":"Gogglebox+Au+-+S04E07","amp;tr":["udp%3A%2F%2Ftracker.leechers-paradise.org%3A6969","udp%3A%2F%2Fzer0day.ch%3A1337","udp%3A%2F%2Fopen.demonii.com%3A1337","udp%3A%2F%2Ftracker.coppersurfer.tk%3A6969","udp%3A%2F%2Fexodus.desync.com%3A6969"],"infoHash":"2e40596704c7e9f3aa7a6d631cf2f9573945bca8","infoHashBuffer":{"type":"Buffer","data":[46,64,89,103,4,199,233,243,170,122,109,99,28,242,249,87,57,69,188,168]},"announce":[],"urlList":[]}}